<svg width="136" height="32" viewBox="0 0 136 32" fill="none" xmlns="http://www.w3.org/2000/svg">
<rect width="32" height="32" rx="8" fill="#6D28FF"/>
<path d="M13.042 17.158H18.172V20.164H13.042V17.158ZM10.072 22L14.41 9.742H17.668L21.61 22H18.334L15.4 11.956H16.696L13.33 22H10.072Z" fill="#F4B400"/>
<path d="M47.608 17.17H54.296V20.47H47.608V17.17ZM44.176 23L49.478 8.018H53.24L58.168 23H54.582L50.71 10.46H52.008L47.74 23H44.176ZM63.755 23.286C62.655 23.286 61.687 23.044 60.851 22.56C60.0296 22.076 59.3843 21.4013 58.915 20.536C58.4456 19.6707 58.211 18.688 58.211 17.588C58.211 16.5027 58.4456 15.5347 58.915 14.684C59.3843 13.8333 60.0296 13.166 60.851 12.682C61.687 12.1833 62.655 11.934 63.755 11.934C65.0016 11.934 66.0723 12.2347 66.967 12.836C67.8616 13.4373 68.4996 14.244 68.881 15.256L65.691 16.708C65.5003 16.2973 65.2583 15.982 64.965 15.762C64.6716 15.5273 64.283 15.41 63.799 15.41C63.227 15.41 62.743 15.608 62.347 16.004C61.9656 16.4 61.775 16.928 61.775 17.588C61.775 18.2773 61.9656 18.82 62.347 19.216C62.743 19.5973 63.227 19.788 63.799 19.788C64.283 19.788 64.6716 19.678 64.965 19.458C65.2583 19.238 65.5003 18.93 65.691 18.534L68.881 19.942C68.4996 20.954 67.8543 21.768 66.945 22.384C66.0503 22.9853 64.987 23.286 63.755 23.286ZM73.2983 23.286C72.5357 23.286 71.861 23.1393 71.2743 22.846C70.6877 22.538 70.2257 22.1127 69.8883 21.57C69.5657 21.0127 69.4043 20.382 69.4043 19.678C69.4043 18.9153 69.5803 18.27 69.9323 17.742C70.299 17.1993 70.7757 16.7887 71.3623 16.51C71.9637 16.2167 72.6237 16.07 73.3423 16.07C74.413 16.07 75.2857 16.3193 75.9603 16.818C76.635 17.302 77.075 18.0207 77.2803 18.974L75.8283 18.644V16.202C75.8283 15.8353 75.6963 15.52 75.4323 15.256C75.1683 14.992 74.7577 14.86 74.2003 14.86C73.8043 14.86 73.3497 14.9113 72.8363 15.014C72.323 15.1167 71.7803 15.3073 71.2083 15.586L70.1963 13.056C70.8417 12.7333 71.553 12.4693 72.3303 12.264C73.1077 12.044 73.9143 11.934 74.7503 11.934C75.7623 11.934 76.613 12.1173 77.3023 12.484C78.0063 12.8507 78.5343 13.3713 78.8863 14.046C79.2383 14.706 79.4143 15.4907 79.4143 16.4V23H76.4223L75.7403 20.866L77.2803 20.382C77.0603 21.2767 76.6203 21.988 75.9603 22.516C75.315 23.0293 74.4277 23.286 73.2983 23.286ZM74.5083 20.866C74.919 20.866 75.249 20.756 75.4983 20.536C75.7477 20.316 75.8723 20.03 75.8723 19.678C75.8723 19.3407 75.7477 19.062 75.4983 18.842C75.249 18.622 74.919 18.512 74.5083 18.512C74.0683 18.512 73.7237 18.622 73.4743 18.842C73.2397 19.062 73.1223 19.3407 73.1223 19.678C73.1223 20.03 73.2397 20.316 73.4743 20.536C73.7237 20.756 74.0683 20.866 74.5083 20.866ZM85.6336 23.286C84.6803 23.286 83.8296 23.044 83.0816 22.56C82.3336 22.076 81.747 21.4013 81.3216 20.536C80.8963 19.6707 80.6836 18.6953 80.6836 17.61C80.6836 16.51 80.8963 15.5347 81.3216 14.684C81.7616 13.8187 82.3556 13.144 83.1036 12.66C83.8663 12.176 84.7243 11.934 85.6776 11.934C86.6163 11.934 87.4303 12.1467 88.1196 12.572C88.809 12.9973 89.3443 13.6353 89.7256 14.486C90.107 15.322 90.2976 16.3633 90.2976 17.61C90.2976 18.7833 90.0996 19.7953 89.7036 20.646C89.3076 21.4967 88.7576 22.1493 88.0536 22.604C87.3643 23.0587 86.5576 23.286 85.6336 23.286ZM86.3376 19.854C86.9243 19.854 87.4156 19.6487 87.8116 19.238C88.2076 18.8127 88.4056 18.27 88.4056 17.61C88.4056 16.9647 88.2076 16.4293 87.8116 16.004C87.4156 15.564 86.9243 15.344 86.3376 15.344C85.7656 15.344 85.2816 15.564 84.8856 16.004C84.5043 16.4293 84.3136 16.9647 84.3136 17.61C84.3136 18.27 84.5043 18.8127 84.8856 19.238C85.2816 19.6487 85.7656 19.854 86.3376 19.854ZM89.1316 23L88.2296 20.052H88.4276V15.41H88.2296V8.018H91.7936V23H89.1316ZM98.5141 23.198C97.4288 23.198 96.4754 22.9707 95.6541 22.516C94.8474 22.0613 94.2168 21.416 93.7621 20.58C93.3074 19.744 93.0801 18.754 93.0801 17.61C93.0801 16.51 93.3074 15.5347 93.7621 14.684C94.2168 13.8333 94.8474 13.166 95.6541 12.682C96.4754 12.1833 97.4288 11.934 98.5141 11.934C99.6434 11.934 100.611 12.1907 101.418 12.704C102.225 13.2173 102.848 13.8993 103.288 14.75C103.728 15.586 103.948 16.5247 103.948 17.566C103.948 17.8007 103.941 18.0133 103.926 18.204C103.911 18.3947 103.889 18.5487 103.86 18.666H95.7421V16.246H101.11L100.802 17.038C100.802 16.3487 100.619 15.784 100.252 15.344C99.8854 14.904 99.3208 14.684 98.5581 14.684C97.8541 14.684 97.2968 14.8893 96.8861 15.3C96.4754 15.7107 96.2701 16.2607 96.2701 16.95V18.16C96.2701 18.908 96.4901 19.4873 96.9301 19.898C97.3701 20.294 97.9861 20.492 98.7781 20.492C99.4088 20.492 99.9074 20.3747 100.274 20.14C100.655 19.8907 100.971 19.5753 101.22 19.194L103.596 20.47C103.141 21.306 102.474 21.9733 101.594 22.472C100.714 22.956 99.6874 23.198 98.5141 23.198Z" fill="white"/>
<path d="M104.701 23L107.319 8.018H110.531L113.941 18.028H113.699L117.109 8.018H120.299L122.917 23H119.375L118.407 16.466C118.29 15.6153 118.172 14.7647 118.055 13.914C117.952 13.0633 117.864 12.2127 117.791 11.362H118.781C118.561 12.242 118.348 13.0927 118.143 13.914C117.938 14.7353 117.696 15.564 117.417 16.4L115.217 22.868H112.423L110.201 16.4C109.922 15.564 109.673 14.7353 109.453 13.914C109.248 13.0927 109.042 12.242 108.837 11.362H109.849C109.761 12.2127 109.666 13.0633 109.563 13.914C109.46 14.7647 109.343 15.6153 109.211 16.466L108.243 23H104.701ZM129.602 15.608H128.018L131.868 8.018H135.652L130.35 18.336L130.526 16.51V23H126.962V16.51L127.138 18.336L121.836 8.018H125.774L129.602 15.608Z" fill="#FFCC00"/>
</svg>
